<?xml version="1.0" encoding="UTF-8"?><svg xmlns="http://www.w3.org/2000/svg" viewBox="0 0 488.13 433.77"><defs><style>.af{fill:#f0f0f0;}.ag,.ah,.ai,.aj{fill:#fff;}.ak{opacity:.25;}.ak,.al,.am,.an{fill:#ba68c8;}.ao{fill:#fafafa;}.ap{fill:#37474f;}.aq{opacity:.6;}.ar{fill:#f5f5f5;}.as{fill:#455a64;}.at,.al,.ai{opacity:.2;}.ah,.au,.am{opacity:.1;}.av{fill:#e0e0e0;}.aw{opacity:.4;}.ax{opacity:.3;}.ay{fill:#ebebeb;}.aj{opacity:.05;}.b`{fill:#263238;}</style></defs><g id="a"><g id="b"><path id="c" class="ar" d="M244.07,207.06L3.86,345.76c9.25,7.45,19.68,14.55,31.26,21.24,115.38,66.61,302.46,66.61,417.84,0,11.59-6.69,22.02-13.8,31.28-21.26L244.07,207.06Z"/><path class="av" d="M487.13,348.41c-.17,0-.34-.04-.5-.13l-2.89-1.67L243.07,207.64V3.01c0-.55,.45-1,1-1s1,.45,1,1V206.49l242.56,140.06c.48,.28,.64,.89,.37,1.37-.19,.32-.52,.5-.87,.5Z"/><path class="av" d="M1,348.41c-.35,0-.68-.18-.87-.5-.28-.48-.11-1.09,.37-1.37l2.86-1.65L243.57,206.2c.48-.28,1.09-.11,1.37,.37,.28,.48,.11,1.09-.37,1.37L1.5,348.28c-.16,.09-.33,.13-.5,.13Z"/></g></g><g id="d"><g id="e"><g><polygon class="af" points="17.39 276.17 17.39 266.57 211.71 154.37 211.71 163.96 17.39 276.17"/><polygon class="av" points="211.7 13.11 211.7 163.96 203.4 159.16 203.4 77.2 203.39 21.38 203.39 17.91 211.7 13.11"/><path class="av" d="M71.79,97.4V235.17l8.31,4.79V92.6l-8.31,4.8Zm75.7-43.75l-7.24,4.18V195.61h.03l8.29,4.8V53.04l-1.07,.62Z"/></g><g><polygon class="ak" points="211.7 13.11 211.7 163.96 152.22 198.31 149.34 199.97 148.56 200.43 83.75 237.85 80.1 239.96 19.78 274.8 19.78 123.91 41.11 111.59 105.41 74.48 149.54 49 191.22 24.95 203.39 17.91 211.7 13.11"/><path class="ai" d="M203.39,17.91l-12.18,7.03-2.05,4.66-36.95,83.89-3.65,8.3-8.31,18.88-32.45,73.68-5.66,12.86,46.42-26.79h0l.78-.45,2.88-6.53,2.78-6.34,48.4-109.9,8.3-18.86V13.11l-8.31,4.8ZM19.78,123.91l-2.39,1.38v40.16l2.39-5.42,19.27-43.76,2.05-4.67-21.33,12.31Zm85.63-49.43h0L17.39,274.36v1.8l43.08-24.88L149.54,49l-44.12,25.48Z"/><path class="ai" d="M100.12,142.79c2.23-4.81,4.34-9.67,6.45-14.53,2.06-4.88,4.13-9.76,6.06-14.7,1.95-4.93,3.88-9.87,5.62-14.88-2.43,4.72-4.67,9.53-6.89,14.34-2.24,4.81-4.34,9.67-6.45,14.53-2.07,4.88-4.13,9.76-6.06,14.69l-2.9,7.4c-.9,2.49-1.87,4.96-2.72,7.48,1.23-2.36,2.35-4.76,3.53-7.13l3.36-7.21Z"/><path class="ai" d="M126.63,118.96c3.15-7.72,6.27-15.45,9.2-23.25-3.62,7.51-7.06,15.11-10.47,22.71-3.42,7.6-6.68,15.27-10.03,22.9-3.21,7.69-6.5,15.35-9.65,23.06l-4.69,11.59c-1.5,3.89-3.06,7.75-4.51,11.66,1.83-3.75,3.55-7.55,5.32-11.32l5.15-11.39c3.41-7.6,6.68-15.27,10.03-22.9,3.21-7.69,6.5-15.35,9.64-23.06Z"/><path class="ai" d="M59.15,192.32c-2.07,4.88-4.13,9.76-6.06,14.69l-2.9,7.41c-.9,2.49-1.87,4.96-2.72,7.48,1.23-2.36,2.35-4.76,3.53-7.13l3.36-7.21c2.23-4.81,4.34-9.67,6.45-14.53,2.06-4.88,4.13-9.76,6.06-14.7,1.95-4.93,3.88-9.87,5.62-14.88-2.43,4.72-4.67,9.53-6.89,14.34-2.24,4.81-4.34,9.67-6.45,14.53Z"/><path class="ai" d="M59.15,157.23c3.15-7.72,6.27-15.45,9.2-23.25-3.62,7.51-7.06,15.11-10.47,22.71-3.42,7.6-6.68,15.27-10.03,22.9-3.21,7.69-6.5,15.35-9.65,23.06l-4.69,11.59c-1.5,3.89-3.06,7.75-4.51,11.66,1.83-3.75,3.55-7.55,5.32-11.32l5.15-11.39c3.41-7.6,6.68-15.27,10.03-22.9,3.21-7.69,6.5-15.35,9.64-23.06Z"/><path class="ai" d="M32.64,181.07c2.23-4.81,4.34-9.67,6.45-14.53,2.06-4.88,4.13-9.76,6.06-14.7,1.95-4.93,3.88-9.87,5.62-14.88-2.43,4.72-4.67,9.53-6.89,14.34-2.24,4.81-4.34,9.67-6.45,14.53-2.07,4.88-4.13,9.76-6.06,14.69l-2.9,7.41c-.9,2.49-1.87,4.96-2.72,7.48,1.23-2.36,2.35-4.76,3.53-7.13l3.36-7.21Z"/><path class="ai" d="M190.49,81.09c3.15-7.72,6.27-15.45,9.2-23.25-3.62,7.51-7.06,15.11-10.47,22.71-3.42,7.6-6.68,15.27-10.03,22.9-3.21,7.69-6.5,15.35-9.65,23.06l-4.69,11.59c-1.5,3.89-3.06,7.75-4.51,11.66,1.83-3.75,3.55-7.55,5.32-11.32l5.15-11.39c3.41-7.6,6.68-15.27,10.03-22.9,3.21-7.69,6.5-15.35,9.64-23.06Z"/><path class="ai" d="M126.63,154.05c-2.07,4.88-4.13,9.76-6.06,14.69l-2.9,7.41c-.9,2.49-1.87,4.96-2.72,7.48,1.23-2.36,2.35-4.76,3.53-7.13l3.36-7.21c2.23-4.81,4.34-9.67,6.45-14.53,2.06-4.88,4.13-9.76,6.06-14.7,1.95-4.93,3.88-9.87,5.62-14.88-2.43,4.72-4.67,9.53-6.89,14.34-2.24,4.81-4.34,9.67-6.45,14.53Z"/><path class="ai" d="M196.94,101.65c-2.24,4.81-4.34,9.67-6.45,14.53-2.07,4.88-4.13,9.76-6.06,14.69l-2.9,7.41c-.9,2.49-1.87,4.96-2.72,7.48,1.23-2.35,2.35-4.76,3.53-7.13l3.36-7.21c2.24-4.81,4.34-9.67,6.45-14.53,2.06-4.88,4.13-9.76,6.06-14.7,1.95-4.93,3.88-9.87,5.62-14.88-2.43,4.72-4.67,9.53-6.89,14.34Z"/><path class="ai" d="M163.98,104.92c2.23-4.81,4.34-9.67,6.45-14.53,2.06-4.88,4.13-9.76,6.06-14.7,1.95-4.93,3.88-9.87,5.62-14.88-2.43,4.72-4.67,9.53-6.89,14.34-2.24,4.81-4.34,9.67-6.45,14.53-2.07,4.88-4.13,9.76-6.06,14.69l-2.9,7.41c-.9,2.49-1.87,4.96-2.72,7.48,1.23-2.36,2.35-4.76,3.53-7.13l3.36-7.21Z"/><g><polygon class="ao" points="148.56 200.41 148.56 200.41 132.58 209.63 148.56 200.41"/><polygon class="ao" points="211.7 4.78 211.7 16.59 203.39 21.38 189.16 29.61 152.22 50.94 152.22 198.31 149.34 199.97 148.56 200.43 148.56 53.04 147.49 53.66 140.25 57.85 103.36 79.15 83.75 90.46 83.75 237.85 80.1 239.96 80.1 92.57 39.05 116.27 19.78 127.4 19.78 115.58 41.11 103.27 211.7 4.78"/></g></g><path class="ao" d="M211.7,4.78V163.96l-59.48,34.35-2.88,1.67-.78,.45-64.81,37.43-3.65,2.11-60.32,34.84V115.58l-2.39,1.38-5.93,3.42-.02,170.44,208.56-120.41V0l-8.3,4.78Z"/></g></g><g id="f"><g id="g"><g id="h"><polygon class="ap" points="387.15 115 385.51 115.98 351.96 96.6 353.59 95.63 387.15 115"/><polygon class="ag" points="353.59 95.63 385.51 114.05 385.51 79.87 353.59 61.46 353.59 95.63"/><path class="as" d="M348.87,98.38l39.73,22.94v-43.23l-39.73-22.94v43.23Zm3.09-37.89l33.56,19.37v36.11l-33.56-19.37V60.5Z"/><polygon class="b`" points="351.96 96.6 353.59 95.63 353.59 61.46 351.96 60.5 351.96 96.6"/><polygon class="ap" points="348.87 55.15 350.53 54.2 390.26 77.14 388.6 78.09 348.87 55.15"/><polygon class="b`" points="390.26 77.14 388.6 78.09 388.6 121.32 390.26 120.37 390.26 77.14"/></g><g id="i" class="at"><polygon class="an" points="354.84 94.63 384.27 111.62 384.27 105.44 376.91 88.45 372.33 92.7 373.98 99.82 363.81 78.09 354.84 88.45 354.84 94.63"/><path class="an" d="M372.6,78.51c1.2,.69,2.18,2.38,2.18,3.77,0,1.39-.97,1.95-2.18,1.26-1.2-.69-2.18-2.38-2.18-3.77s.97-1.95,2.18-1.26Z"/></g></g><g id="j"><g id="k"><polygon class="ap" points="336.9 149.78 335.26 150.76 301.7 131.38 303.34 130.41 336.9 149.78"/><polygon class="ag" points="303.35 130.41 335.27 148.83 335.27 50.81 303.35 32.39 303.35 130.41"/><path class="as" d="M298.62,133.16l39.73,22.94V49.02l-39.73-22.94v107.08Zm3.09-101.73l33.56,19.37v99.95l-33.56-19.37V31.43Z"/><polygon class="b`" points="301.7 131.38 303.34 130.41 303.34 32.39 301.7 31.43 301.7 131.38"/><polygon class="ap" points="298.62 26.09 300.28 25.14 340.01 48.07 338.35 49.02 298.62 26.09"/><polygon class="b`" points="340.01 48.07 338.35 49.02 338.35 156.1 340.01 155.15 340.01 48.07"/></g><g><g id="l" class="at"><polygon class="an" points="305.89 127.92 332.73 143.41 332.73 53.3 305.89 37.81 305.89 127.92"/></g><path class="am" d="M332.73,114.39c-1.27,.2-2.56,.24-3.84,.22-4.46-.08-8.87-.85-13.07-2.3-3.25-1.12-6.49-2.64-9.93-2.52v18.13l3.63,2.1c1.45-1.52,3.12-2.74,4.98-3.42,5.17-1.86,10.47,.69,15.79,1.01,.81,.05,1.62,.03,2.43-.03v-13.19Z"/><path class="am" d="M332.73,94.31c-6-1.58-12.16-2.82-16.45-7.45-3.45-3.73-5.08-9.11-6.22-14.41-1.14-5.3-1.92-10.8-4.1-15.61-.02-.05-.05-.09-.07-.14v35.72c.34,.54,.67,1.07,1.03,1.59,3.94,5.7,9.75,10.28,16.38,10.23,3.12-.03,6.34-1.05,9.42-1.25v-8.69Z"/><path class="am" d="M332.73,69.73c-4.6-4.22-7.07-11.33-5.95-18.17,.08-.51,.19-1.01,.3-1.51l-10.32-5.96c.04,.75,.07,1.51,.09,2.26,.11,4.39-.03,8.85,.85,13.08,1.47,7.09,5.89,13.17,11.76,16.17,1.05,.54,2.14,.97,3.27,1.3v-7.17Z"/></g></g><g id="m"><g id="n"><polygon class="ap" points="387.15 178.79 385.51 179.77 351.96 160.39 353.59 159.42 387.15 178.79"/><polygon class="ag" points="353.59 159.42 385.51 177.85 385.51 143.66 353.59 125.25 353.59 159.42"/><path class="as" d="M348.87,162.18l39.73,22.94v-43.23l-39.73-22.94v43.23Zm3.09-37.89l33.56,19.37v36.11l-33.56-19.37v-36.11Z"/><polygon class="b`" points="351.96 160.39 353.59 159.42 353.59 125.25 351.96 124.29 351.96 160.39"/><polygon class="ap" points="348.87 118.94 350.53 117.99 390.26 140.93 388.6 141.88 348.87 118.94"/><polygon class="b`" points="390.26 140.93 388.6 141.88 388.6 185.11 390.26 184.16 390.26 140.93"/></g><g id="o" class="at"><polygon class="an" points="354.84 158.42 384.27 175.41 384.27 169.24 376.91 152.25 372.33 156.49 373.98 163.61 363.81 141.88 354.84 152.25 354.84 158.42"/><path class="an" d="M372.6,142.3c1.2,.69,2.18,2.38,2.18,3.77,0,1.39-.97,1.95-2.18,1.26-1.2-.69-2.18-2.38-2.18-3.77s.97-1.95,2.18-1.26Z"/></g></g></g><g id="p"><path id="q" class="av" d="M202.42,433.05l-93.74-54.12c-1.68-.97-1.68-2.54,0-3.51l189.48-109.34c1.68-.97,4.4-.97,6.08,0l93.74,54.12c1.68,.97,1.68,2.54,0,3.51l-189.48,109.34c-1.68,.97-4.4,.97-6.08,0Z"/><path id="r" class="av" d="M48.08,375.64c-16.61,9.59-16.61,25.13,0,34.72,16.61,9.59,43.53,9.59,60.14,0,16.61-9.59,16.61-25.13,0-34.72-16.61-9.59-43.53-9.59-60.14,0Z"/><path id="s" class="av" d="M422.99,360.97c-9.02,5.21-9.02,13.65,0,18.86,9.02,5.21,23.64,5.21,32.66,0,9.02-5.21,9.02-13.65,0-18.86-9.02-5.21-23.64-5.21-32.66,0Z"/></g><g id="t"><g id="u"><g id="v"><g><polygon class="ap" points="205.68 427.36 207.3 404.07 218.58 397.56 212.13 423.63 205.68 427.36"/><polygon class="b`" points="205.68 427.36 199.23 423.63 199.35 399.48 207.3 404.07 205.68 427.36"/></g><g><polygon class="ap" points="126.64 381.73 128.27 358.45 139.54 351.94 133.09 378.01 126.64 381.73"/><polygon class="b`" points="126.64 381.73 120.19 378.01 120.31 353.86 128.27 358.45 126.64 381.73"/></g><g><polygon class="ap" points="385.73 323.4 384.1 301.99 372.83 308.5 379.28 327.12 385.73 323.4"/><polygon class="b`" points="379.28 327.12 372.83 323.4 364.87 303.91 372.83 308.5 379.28 327.12"/></g><g><polygon class="as" points="205.68 403.13 386.78 298.57 386.78 306.02 205.68 410.58 205.68 403.13"/><polygon class="ap" points="115.36 358.43 205.68 410.58 205.68 403.13 115.36 350.98 115.36 358.43"/><polygon class="b`" points="205.68 403.13 386.78 298.57 296.46 246.42 115.36 350.98 205.68 403.13"/></g><g><path class="an" d="M389.37,252.7v39.35c0,4.01-2.84,8.93-6.31,10.92l-1.82,1.06-.09,.04c-2.02,1.14-4.76,1.6-7.38,1.4-1.88-.13-3.7-.63-5.14-1.44l-77.79-44.9c-3.47-2-6.31-6.92-6.31-10.92v-39.35c0-4.01,2.83-8.93,6.31-10.92l3.65-2.12c2.76-1.6,6.16-1.6,8.92,0l79.65,45.97c3.47,2,6.31,6.92,6.31,10.92Z"/><path class="at" d="M389.37,252.7v39.35c0,4.01-2.84,8.93-6.31,10.92l-1.82,1.06-.09,.04c-2.02,1.14-4.76,1.6-7.38,1.4-1.88-.13-3.7-.63-5.14-1.44l-77.79-44.9c-3.47-2-6.31-6.92-6.31-10.92v-39.35c0-4.01,2.83-8.93,6.31-10.92l3.65-2.12c2.76-1.6,6.16-1.6,8.92,0l79.65,45.97c3.47,2,6.31,6.92,6.31,10.92Z"/><path class="an" d="M303.41,195.81c-2.76-1.59-6.16-1.59-8.92,0l-3.66,2.12c-3.47,2-3.47,5.28,0,7.28l77.8,44.89c3.47,2,6.31,6.92,6.31,10.92v39.36c0,4.01,2.84,5.64,6.31,3.64l1.82-1.05c3.47-2,6.31-6.92,6.31-10.92v-39.36c0-4.01-2.84-8.92-6.31-10.92l-79.65-45.96Z"/><path class="ai" d="M303.41,195.81c-2.76-1.59-6.16-1.59-8.92,0l-3.66,2.12c-3.47,2-3.47,5.28,0,7.28l77.8,44.89c3.47,2,6.31,6.92,6.31,10.92v39.36c0,4.01,2.84,5.64,6.31,3.64l1.82-1.05c3.47-2,6.31-6.92,6.31-10.92v-39.36c0-4.01-2.84-8.92-6.31-10.92l-79.65-45.96Z"/><path class="an" d="M374.94,261.03v39.36c0,4.01,2.84,5.64,6.31,3.64l1.82-1.05c3.47-2,6.31-6.92,6.31-10.92v-39.36c0-2-.71-4.23-1.85-6.21l-14.43,8.34c1.14,1.98,1.85,4.21,1.85,6.21Z"/><path class="au" d="M374.94,261.03v39.36c0,4.01,2.84,5.64,6.31,3.64l1.82-1.05c3.47-2,6.31-6.92,6.31-10.92v-39.36c0-2-.71-4.23-1.85-6.21l-14.43,8.34c1.14,1.98,1.85,4.21,1.85,6.21Z"/></g><g><path class="an" d="M121.52,237.61l150-86.58c.45-.26,1.12-.19,1.92,.28l13.62,7.86c1.7,.98,3.35,3.34,3.68,5.28l15.56,73.65c.18,1.01-.04,1.71-.54,2l-150,86.58c-.45,.26-1.12,.19-1.93-.28l-29.24-16.92c-1.7-.98-3.35-3.34-3.68-5.28v-64.6c0-1.02,.11-1.71,.6-2Z"/><g class="at"><path class="ag" d="M121.52,237.61l150-86.58c.45-.26,1.12-.19,1.92,.28l13.62,7.86c1.7,.98,3.35,3.34,3.68,5.28l15.56,73.65c.18,1.01-.04,1.71-.54,2l-150,86.58c-.45,.26-1.12,.19-1.93-.28l-29.24-16.92c-1.7-.98-3.35-3.34-3.68-5.28v-64.6c0-1.02,.11-1.71,.6-2Z"/></g><path class="an" d="M156.31,324.68c.17,1.02-.04,1.71-.54,2l149.99-86.59c.5-.28,.71-.98,.54-1.99l-15.57-73.65c-.17-.99-.7-2.09-1.38-3.06l-149.99,86.57c.7,.97,1.21,2.08,1.38,3.06l15.57,73.65Z"/><path class="an" d="M153.84,326.4l-29.24-16.92c-1.7-.98-3.35-3.34-3.68-5.28v-64.6c0-1.11,.11-1.71,.6-2,.45-.26,1.12-.19,1.93,.28l13.62,7.86c1.7,.98,3.35,3.34,3.68,5.28l15.57,73.65c.18,1.02-.05,1.71-.54,2-.45,.26-1.12,.19-1.93-.28Z"/><g class="at"><path d="M153.84,326.4l-29.24-16.92c-1.7-.98-3.35-3.34-3.68-5.28v-64.6c0-1.11,.11-1.71,.6-2,.45-.26,1.12-.19,1.93,.28l13.62,7.86c1.7,.98,3.35,3.34,3.68,5.28l15.57,73.65c.18,1.02-.05,1.71-.54,2-.45,.26-1.12,.19-1.93-.28Z"/></g></g><g><path class="an" d="M369.84,305.48c-.59,1.24-1.38,2.44-2.3,3.47-1.34,1.5-4.19,3.14-5.93,4.15-22.19,12.82-111.61,64.49-133.79,77.3-1.74,1.01-4.56,1-6.31,0l-20.51-11.84-35.46-20.48c-3.48-2.01-6.31-6.7-6.31-10.47s2.83-8.46,6.31-10.47l23.27-13.44,17.75-10.24,92.71-53.59c1.75-1.01,4.02-1.5,6.31-1.5s4.56,.5,6.31,1.5l52.81,30.52c3.48,2.01,6.31,3.56,6.31,8.19,0,1.47-.44,5.37-1.17,6.91Z"/><path class="at" d="M369.84,305.48c-.59,1.24-1.38,2.44-2.3,3.47-1.34,1.5-4.19,3.14-5.93,4.15-22.19,12.82-111.61,64.49-133.79,77.3-1.74,1.01-4.56,1-6.31,0l-20.51-11.84-35.46-20.48c-3.48-2.01-6.31-6.7-6.31-10.47s2.83-8.46,6.31-10.47l23.27-13.44,17.75-10.24,92.71-53.59c1.75-1.01,4.02-1.5,6.31-1.5s4.56,.5,6.31,1.5l52.81,30.52c3.48,2.01,6.31,3.56,6.31,8.19,0,1.47-.44,5.37-1.17,6.91Z"/><path class="an" d="M227.82,376.74l140.03-80.91c1.74-1.01,3.15-.19,3.15,1.82v6.38c0,2.01-1.41,4.46-3.15,5.46l-140.04,80.91c-1.74,1.01-3.15,.19-3.15-1.82v-6.38c0-2.01,1.42-4.46,3.16-5.46Z"/></g><g><path class="an" d="M299.27,233.79l-133.73,77.3c-3.48,2.01-6.31,6.9-6.31,10.92v7.59c0,4.02,2.82,8.91,6.31,10.92l52.81,30.51c3.48,2.01,9.13,2.01,12.61,0l133.73-77.3c3.48-2.01,6.31-6.9,6.31-10.92v-7.59c0-4.02-2.82-8.91-6.31-10.92l-52.81-30.51c-3.48-2.01-9.13-2.01-12.61,0Z"/><path class="an" d="M224.66,350.38v22.17c-2.29,0-4.57-.51-6.31-1.51l-52.82-30.5c-3.48-2.01-6.31-6.9-6.31-10.92v-7.59c0-3.77,2.49-8.3,5.67-10.52-2.83,2.02-2.61,5,.64,6.87l52.82,30.5c1.75,1.01,4.02,1.5,6.31,1.5Z"/><path class="at" d="M224.66,350.38v22.17c-2.29,0-4.57-.51-6.31-1.51l-52.82-30.5c-3.48-2.01-6.31-6.9-6.31-10.92v-7.59c0-3.77,2.49-8.3,5.67-10.52-2.83,2.02-2.61,5,.64,6.87l52.82,30.5c1.75,1.01,4.02,1.5,6.31,1.5Z"/><path class="an" d="M230.96,348.88l133.73-77.3c3.48-2.01,3.48-5.27,0-7.28l-52.81-30.51c-3.48-2.01-9.13-2.01-12.61,0l-133.73,77.3c-3.48,2.01-3.48,5.27,0,7.28l52.82,30.51c3.48,2.01,9.13,2.01,12.61,0Z"/><path class="ah" d="M230.96,348.88l133.73-77.3c3.48-2.01,3.48-5.27,0-7.28l-52.81-30.51c-3.48-2.01-9.13-2.01-12.61,0l-133.73,77.3c-3.48,2.01-3.48,5.27,0,7.28l52.82,30.51c3.48,2.01,9.13,2.01,12.61,0Z"/></g><g id="w"><path class="as" d="M191.77,251.02c-4.04-.4-7.38,4.25-14.11,7.55-12.54,6.14-18.19,11.72-24.03,18.52-5.84,6.81-8.05,5.66-9.83,9.9-1.78,4.24,3.15,6.06,5.5,12.08,3.97,10.14,8.89,16.96,14.03,21.19,9.06,7.46,7.67,12.66,11.8,12.61,4.39-.05,4.07-3.82,10.97-6.5,16.32-6.34,23.03-11.99,30.57-23.15,2.95-4.36,6.7-3.99,7.41-8.2,.36-2.11-2.71-3.24-5.47-9.85-4.59-10.98-11.92-21.28-19.07-26.63-3.12-2.34-3.65-7.11-7.76-7.52Z"/><path class="ap" d="M148.23,294.06c3.45,4.89,2.99,9.77,10.09,18.75,6.81,8.63,11.74,11.05,13.79,14.93,1.7,3.22,4.01,4.72,4.57,.96,.55-3.76-2.41-14.53-9.27-23.74-7.9-10.61-12.95-14.67-16.36-16.23-5.35-2.44-5.52,1.49-2.81,5.33Z"/><path class="ap" d="M186.36,322.22c-4.5,1.56-4.7,5.55-6.96,8.63,1.38-1.32,3.01-3.06,6.69-4.49,7.44-2.89,12.87-5.64,17.3-8.82-5.77,3.04-13.76,3.55-17.03,4.67Zm28.2-20.7c-2.79,2.57-2.52,7.15-5.88,11.56,2.84-2.8,5.36-6,7.97-9.87,2.69-3.98,6.05-4.03,7.15-7.21-2.47,3.13-5.89,2.43-9.25,5.52Z"/><path class="aj" d="M186.15,260.74c-9.61,1.8-19.23,6.75-25.83,14.15-1.24,1.5-1.97,3.53-1.76,5.58,.27,2.59,1.45,4.71,3.88,6.08,2.26,1.28,5.56,1.28,7.93,.98,4.98-.64,7.91-1.94,14.34-2.04,1.9-.03,4.66,.54,6.78,1.72,3.18,1.76,5.55,3.76,8.33,5.25,3.83,2.05,10.63,1.11,12.99-1.25,2.52-2.52,3.09-6.31,.83-11.06-5.01-10.56-14.36-20.84-27.48-19.4Z"/></g><g id="x"><path class="ar" d="M239.92,248.35c-3.4-.34-6.21,3.58-11.88,6.35-10.56,5.16-15.31,9.86-20.22,15.59s-6.77,4.76-8.28,8.33c-1.5,3.57,2.65,5.1,4.63,10.17,3.34,8.54,7.48,14.27,11.8,17.83,7.62,6.28,6.46,10.65,9.93,10.61,3.69-.04,3.43-3.21,9.23-5.47,13.74-5.34,19.37-10.09,25.72-19.48,2.48-3.67,5.64-3.36,6.24-6.9,.3-1.77-2.28-2.72-4.6-8.28-3.86-9.24-10.03-17.91-16.05-22.41-2.62-1.97-3.07-5.98-6.53-6.33Z"/><path class="av" d="M203.28,284.57c2.9,4.11,2.52,8.22,8.49,15.78,5.73,7.26,9.88,9.3,11.6,12.56,1.43,2.71,3.38,3.97,3.84,.81,.47-3.17-2.02-12.23-7.8-19.98-6.65-8.93-10.9-12.34-13.77-13.65-4.5-2.05-4.64,1.25-2.36,4.49Z"/><path class="av" d="M235.37,308.27c-3.79,1.31-3.95,4.67-5.86,7.27,1.16-1.11,2.53-2.57,5.63-3.77,6.26-2.43,10.83-4.74,14.56-7.42-4.85,2.56-11.58,2.98-14.33,3.93Zm23.73-17.41c-2.35,2.16-2.12,6.01-4.94,9.73,2.39-2.36,4.51-5.05,6.7-8.3,2.26-3.35,5.09-3.39,6.02-6.07-2.08,2.63-4.95,2.04-7.78,4.65Z"/><path class="ao" d="M235.19,256.53c-8.09,1.51-16.18,5.68-21.74,11.9-1.04,1.26-1.66,2.97-1.48,4.69,.23,2.18,1.22,3.96,3.27,5.12,1.9,1.07,4.68,1.08,6.67,.82,4.19-.54,6.65-1.63,12.07-1.72,1.6-.03,3.92,.45,5.71,1.44,2.67,1.48,4.67,3.16,7.01,4.42,3.22,1.73,8.94,.94,10.93-1.05,2.12-2.12,2.6-5.31,.7-9.31-4.22-8.88-12.09-17.54-23.12-16.32Z"/></g><g id="y"><path class="as" d="M288.02,192.89c3.51-2.04,8.48,.82,15.97,1.04,13.96,.41,24.95,3.41,33.09,7.19,8.13,3.79,9.67,1.83,13.05,4.95,3.38,3.13-.37,6.82-.02,13.28,.58,10.88-1.09,19.12-4.02,25.09-5.17,10.54-1.76,14.7-5.53,16.36-4.02,1.77-5.29-1.8-12.68-1.39-17.49,.97-29.47-1.66-40.95-8.71-4.48-2.75-7.75-.87-10.14-4.41-1.19-1.77,1.13-4.07,.92-11.23-.35-11.9,2.07-24.3,6.37-32.13,1.88-3.42,.39-7.98,3.96-10.05Z"/><path class="ap" d="M348.99,214.35c-1.12,5.88,1.31,10.13-1.44,21.24-2.64,10.67-6.13,14.92-6.39,19.29-.22,3.63-1.7,5.96-3.76,2.76-2.06-3.2-3.81-14.23-1.36-25.45,2.82-12.93,5.73-18.71,8.2-21.53,3.86-4.43,5.64-.93,4.76,3.7Z"/><path class="ap" d="M308.46,258.53c5.35,1.07,11.44,1.33,19.4,.89,3.94-.22,6.14,.69,7.94,1.32-3.34-1.88-5.16-5.43-9.91-4.99-3.44,.32-10.94,3.16-17.44,2.78Zm-31.04-11.44c2.32,2.44,5.4,1.1,9.49,3.62,3.98,2.44,7.59,4.32,11.33,5.7-4.88-2.63-6.52-6.91-10.13-8.1-4.34-1.43-7.16,.62-10.7-1.21Z"/><path class="aj" d="M297.15,199.42c9.5-2.33,22.22-2.26,31.29,1.75,1.74,.85,4.88,3.12,5.54,5.07,.82,2.47,.62,4.89-1.02,7.14-1.53,2.1-4.54,3.46-6.81,4.16-4.8,1.47-9.67,.95-15.95,3.14-1.79,.63-5.53,3.08-6.97,5.03-2.16,2.92-3.5,5.71-5.42,8.22-2.64,3.45-9.22,5.4-12.34,4.23-3.34-1.26-5.42-4.47-5.33-9.73,.21-11.68,4.47-24.91,17.01-29.01Z"/></g><g><path class="an" d="M220.2,349.01v39.35c0,4.01-2.84,8.93-6.31,10.92l-1.82,1.06-.09,.04c-2.02,1.14-4.76,1.6-7.38,1.4-1.88-.13-3.7-.63-5.14-1.44l-77.79-44.9c-3.47-2-6.31-6.92-6.31-10.92v-39.35c0-4.01,2.83-8.93,6.31-10.92l3.65-2.12c2.76-1.6,6.16-1.6,8.92,0l79.65,45.97c3.47,2,6.31,6.92,6.31,10.92Z"/><path class="at" d="M220.2,349.01v39.35c0,4.01-2.84,8.93-6.31,10.92l-1.82,1.06-.09,.04c-2.02,1.14-4.76,1.6-7.38,1.4-1.88-.13-3.7-.63-5.14-1.44l-77.79-44.9c-3.47-2-6.31-6.92-6.31-10.92v-39.35c0-4.01,2.83-8.93,6.31-10.92l3.65-2.12c2.76-1.6,6.16-1.6,8.92,0l79.65,45.97c3.47,2,6.31,6.92,6.31,10.92Z"/><path class="an" d="M134.24,292.11c-2.76-1.59-6.16-1.59-8.92,0l-3.66,2.12c-3.47,2-3.47,5.28,0,7.28l77.8,44.89c3.47,2,6.31,6.92,6.31,10.92v39.36c0,4.01,2.84,5.64,6.31,3.64l1.82-1.05c3.47-2,6.31-6.92,6.31-10.92v-39.36c0-4.01-2.84-8.92-6.31-10.92l-79.65-45.96Z"/><path class="ai" d="M134.24,292.11c-2.76-1.59-6.16-1.59-8.92,0l-3.66,2.12c-3.47,2-3.47,5.28,0,7.28l77.8,44.89c3.47,2,6.31,6.92,6.31,10.92v39.36c0,4.01,2.84,5.64,6.31,3.64l1.82-1.05c3.47-2,6.31-6.92,6.31-10.92v-39.36c0-4.01-2.84-8.92-6.31-10.92l-79.65-45.96Z"/><path class="an" d="M205.76,357.33v39.36c0,4.01,2.84,5.64,6.31,3.64l1.82-1.05c3.47-2,6.31-6.92,6.31-10.92v-39.36c0-2-.71-4.23-1.85-6.21l-14.43,8.34c1.14,1.98,1.85,4.21,1.85,6.21Z"/><path class="au" d="M205.76,357.33v39.36c0,4.01,2.84,5.64,6.31,3.64l1.82-1.05c3.47-2,6.31-6.92,6.31-10.92v-39.36c0-2-.71-4.23-1.85-6.21l-14.43,8.34c1.14,1.98,1.85,4.21,1.85,6.21Z"/></g></g></g></g><g id="a`"><g id="aa"><g id="ab"><g><path class="as" d="M55.06,349.92c0-.34,.22-.68,.67-.94,.89-.52,2.34-.52,3.24,0,.45,.26,.67,.6,.67,.93l-10.01,48.19h0c0,.23-.16,.47-.47,.64-.63,.36-1.66,.36-2.29,0-.31-.18-.46-.41-.47-.64h0l8.67-48.18Z"/><path class="as" d="M100.68,349.92c0-.34-.22-.68-.67-.94-.89-.52-2.34-.52-3.24,0-.45,.26-.67,.6-.67,.93l10.01,48.19h0c0,.23,.16,.47,.47,.64,.63,.36,1.66,.36,2.29,0,.31-.18,.46-.41,.47-.64h0l-8.67-48.18Z"/><path class="as" d="M80.44,352.28c0-.34-.22-.68-.67-.94-.89-.52-2.34-.52-3.24,0-.45,.26-.67,.6-.67,.93l.67,57.31h0c0,.23,.16,.47,.47,.64,.63,.36,1.66,.36,2.29,0,.31-.18,.46-.41,.47-.64h0l.67-57.31Z"/></g><g><path class="ap" d="M121.34,332.71h-.04c0-6.38-4.18-12.76-12.61-17.63-16.87-9.74-44.22-9.74-61.08,0-8.43,4.87-12.62,11.25-12.61,17.63h-.04v3.43h0c.1,6.3,4.33,12.58,12.65,17.39,16.87,9.74,44.22,9.74,61.08,0,8.33-4.81,12.55-11.09,12.65-17.39h0v-3.43Z"/><path class="as" d="M47.61,315.07c-16.87,9.74-16.87,25.53,0,35.27,16.87,9.74,44.22,9.74,61.08,0,16.87-9.74,16.87-25.53,0-35.27-16.87-9.74-44.22-9.74-61.08,0Z"/></g></g><g id="ac"><path class="ap" d="M87.4,325.79c5.11,2.95,5.11,7.73,0,10.68-5.11,2.95-13.39,2.95-18.5,0-5.11-2.95-5.11-7.73,0-10.68,5.11-2.95,13.39-2.95,18.5,0Z"/><g><path class="ay" d="M69.75,332.17c-4.45-4.54-7.06-15.88-2.72-19.48h22.08c4.34,3.6,1.73,14.93-2.72,19.47-.04,.04-.08,.08-.12,.12-.05,.05-.1,.1-.15,.15-.13,.12-.26,.24-.4,.36-.04,.03-.07,.06-.11,.08-.11,.09-.22,.17-.34,.25-.19,.13-.38,.26-.58,.37-3.66,2.11-9.59,2.11-13.25,0h0c-.2-.11-.39-.23-.58-.37-.11-.08-.21-.16-.31-.24-.04-.03-.09-.07-.13-.1-.14-.11-.27-.23-.39-.35-.06-.06-.12-.11-.18-.17-.03-.04-.07-.07-.1-.11Z"/><path class="ao" d="M87.19,311.25c5.04,2.91,5.04,7.62,0,10.53-5.04,2.91-13.21,2.91-18.24,0-5.04-2.91-5.04-7.62,0-10.53,5.04-2.91,13.21-2.91,18.24,0Z"/><path class="ay" d="M83.62,313.31c3.07,1.77,3.07,4.64,0,6.41-3.07,1.77-8.03,1.77-11.1,0-3.07-1.77-3.07-4.64,0-6.41,3.07-1.77,8.03-1.77,11.1,0Z"/><path class="av" d="M72.52,316.35c3.07-1.77,8.03-1.77,11.1,0,.85,.49,1.46,1.07,1.84,1.68-.38,.61-.98,1.19-1.84,1.68-3.07,1.77-8.03,1.77-11.1,0-.85-.49-1.46-1.07-1.84-1.68,.38-.61,.98-1.19,1.84-1.68Z"/></g><g><path class="an" d="M82.94,318.03s2.16-2.06,4.01-5.34c1.85-3.28,2.2-7.67,1.24-8.21-.96-.54-4.86,3.84-4.86,3.84,0,0,.57-2.68,.41-5.6s-.88-5.57-1.71-6.11c-.84-.54-2.71,3.15-3.51,5.82-.8,2.67-1.28,4.86-1.28,4.86,0,0-.55-3.61-1.44-6.14-.97-2.77-1.86-3.4-2.54-3.12-.68,.27-1.14,1.57-1.34,5.26-.14,2.58,.16,5.28,.16,5.28,0,0-1.38-1.51-2.9-2.98-1.68-1.61-2.4-1.83-2.87-1.53-.48,.31-.61,2.81,1.99,7.51,2.29,4.15,4.9,6.45,4.9,6.45,0,0,3.6,2.32,9.74,0Z"/><path class="ax" d="M82.94,318.03s2.16-2.06,4.01-5.34c1.85-3.28,2.2-7.67,1.24-8.21-.96-.54-4.86,3.84-4.86,3.84,0,0,.57-2.68,.41-5.6s-.88-5.57-1.71-6.11c-.84-.54-2.71,3.15-3.51,5.82-.8,2.67-1.28,4.86-1.28,4.86,0,0-.55-3.61-1.44-6.14-.97-2.77-1.86-3.4-2.54-3.12-.68,.27-1.14,1.57-1.34,5.26-.14,2.58,.16,5.28,.16,5.28,0,0-1.38-1.51-2.9-2.98-1.68-1.61-2.4-1.83-2.87-1.53-.48,.31-.61,2.81,1.99,7.51,2.29,4.15,4.9,6.45,4.9,6.45,0,0,3.6,2.32,9.74,0Z"/></g></g></g></g><g id="ad"><g id="ae"><g><path class="ap" d="M458.92,364.43h-.02c0-2.9-1.9-5.8-5.74-8.02-7.67-4.43-20.11-4.43-27.78,0-3.84,2.21-5.74,5.12-5.74,8.02h-.02v2.71h0c.05,2.86,1.97,5.72,5.75,7.91,7.67,4.43,20.11,4.43,27.78,0,3.79-2.19,5.71-5.04,5.75-7.91h0v-2.71Z"/><path class="as" d="M425.39,356.41c-7.67,4.43-7.67,11.61,0,16.04,7.67,4.43,20.11,4.43,27.78,0,7.67-4.43,7.67-11.61,0-16.04-7.67-4.43-20.11-4.43-27.78,0Z"/></g><path class="ap" d="M436.97,140.47h4.71v221.65h-.02c.06,.38-.16,.78-.67,1.08-.92,.53-2.41,.53-3.33,0-.51-.29-.73-.69-.67-1.08h-.02V140.47Z"/><path class="an" d="M411.68,158.67h-.01l13.02-33.2h29.27l13.02,33.2h-.02c1.85,5.19-.69,10.8-7.67,14.83-11.03,6.37-28.91,6.37-39.94,0-6.98-4.03-9.53-9.64-7.67-14.83Z"/><g class="aw"><path class="ag" d="M411.68,158.67h-.01l13.02-33.2h29.27l13.02,33.2h-.02c1.85,5.19-.69,10.8-7.67,14.83-11.03,6.37-28.91,6.37-39.94,0-6.98-4.03-9.53-9.64-7.67-14.83Z"/></g><path class="al" d="M426.08,164.98c-5.3-8.61,1.48-24.92,6.47-38.53v-.98h-7.86l-13.02,33.2h.01c-1.85,5.19,.69,10.8,7.67,14.83,11.03,6.37,28.91,6.37,39.94,0-9.97,3.91-27.91,.08-33.21-8.53Z"/><path class="an" d="M449.91,133.43c-5.85,3.38-15.33,3.38-21.18,0-5.85-3.38-5.85-8.85,0-12.23,5.85-3.38,15.33-3.38,21.18,0,5.85,3.38,5.85,8.85,0,12.23Z"/><g class="aq"><path class="ag" d="M449.91,133.43c-5.85,3.38-15.33,3.38-21.18,0-5.85-3.38-5.85-8.85,0-12.23,5.85-3.38,15.33-3.38,21.18,0,5.85,3.38,5.85,8.85,0,12.23Z"/></g><path class="an" d="M439.32,134.22c3.7,0,7.15-.82,9.72-2.3,2.27-1.31,3.52-2.95,3.52-4.61s-1.25-3.3-3.52-4.61c-2.57-1.48-6.02-2.3-9.72-2.3s-7.15,.82-9.72,2.3c-2.27,1.31-3.52,2.94-3.52,4.61s1.25,3.3,3.52,4.61c2.57,1.48,6.02,2.3,9.72,2.3Z"/></g></g></svg>